<svg width="31" height="31" viewBox="0 0 31 31" fill="none" xmlns="http://www.w3.org/2000/svg">
<path d="M9.08646 18.4311C9.28757 18.4311 9.57617 18.4755 10.4067 19.015C10.945 19.3649 11.4557 19.7566 11.9344 20.1864L11.909 25.1059C13.3386 25.0844 14.4726 25.093 15.2636 25.1059C16.0546 25.1188 16.8534 25.0701 17.6487 25.0608C18.1445 25.0625 18.639 25.0076 19.1227 24.8969C19.3828 24.8362 19.639 24.7593 19.8898 24.6665C19.8898 25.078 19.9441 26.6078 21.095 27.9052C21.653 28.5289 22.3635 28.9923 23.1547 29.2483C22.1573 29.6804 21.1161 30.0005 20.0499 30.2028C19.0994 30.3799 18.1345 30.4652 17.1681 30.4576C15.0075 30.4705 12.4404 30.4876 9.48585 30.4869C8.80562 30.4869 8.32014 30.3438 7.94897 30.1406C7.61486 29.9552 7.31805 29.7079 7.07398 29.4114C6.64125 28.8933 6.35153 28.2681 6.23428 27.5996L6.23004 20.1191C6.72099 19.6973 7.2433 19.3145 7.79232 18.9742C8.60874 18.4697 8.891 18.4304 9.08646 18.4311Z" fill="#651FFF"/>
<path d="M9.08646 11.2104C8.43184 11.2142 7.79799 11.4438 7.2892 11.8616L0.206726 17.0472L2.21638 19.8759C2.44387 20.1813 2.78029 20.3843 3.15355 20.4412C3.52682 20.4982 3.90724 20.4047 4.21333 20.1807L8.27286 17.2261C8.52881 17.0441 8.83608 16.9511 9.14855 16.9612C9.46103 16.9713 9.76186 17.0838 10.0059 17.2819C10.4998 17.6326 11.9979 18.7131 14.028 20.2286C14.3259 20.421 14.6835 20.4947 15.0318 20.4355C15.3801 20.3763 15.6944 20.1884 15.9142 19.9081L17.9605 17.0458L10.7588 11.7635C10.2722 11.4062 9.68726 11.2127 9.08646 11.2104V11.2104Z" fill="#00E5FF"/>
<path d="M6.20959 3.3764C6.28016 2.85619 6.50596 1.84653 7.31744 1.12453C7.91221 0.604487 8.67021 0.316303 9.45552 0.311646L17.281 0.332397C20.9673 0.296619 23.3396 1.57104 24.3946 2.24581C31.3303 6.68231 30.583 16.6723 30.5265 17.297C30.3085 19.7299 29.4843 21.8544 29.3975 22.0669C29.0144 23.0365 28.3624 24.648 26.9236 26.3181C26.3344 27.0021 25.6773 27.6226 24.9626 28.17C24.1308 27.9755 23.3678 27.5529 22.7568 26.9485C21.541 25.732 21.409 24.2201 21.3864 23.8265C21.8052 23.5146 22.1827 23.1496 22.5098 22.7403C22.7247 22.4641 22.9191 22.172 23.0912 21.8666C25.7691 17.0351 24.0368 11.3728 24.0368 11.3728C23.5676 9.83866 23.0842 8.30163 21.6376 7.13097C20.1558 5.92882 18.487 5.74206 17.715 5.70771L11.9076 5.67265L6.20959 5.75565V3.3764Z" fill="#651FFF"/>
</svg>
